%TF.GenerationSoftware,KiCad,Pcbnew,9.0.7*%
%TF.CreationDate,2026-02-17T16:16:18+01:00*%
%TF.ProjectId,FDD-Final,4644442d-4669-46e6-916c-2e6b69636164,rev?*%
%TF.SameCoordinates,Original*%
%TF.FileFunction,Copper,L1,Top*%
%TF.FilePolarity,Positive*%
%FSLAX46Y46*%
G04 Gerber Fmt 4.6, Leading zero omitted, Abs format (unit mm)*
G04 Created by KiCad (PCBNEW 9.0.7) date 2026-02-17 16:16:18*
%MOMM*%
%LPD*%
G01*
G04 APERTURE LIST*
G04 Aperture macros list*
%AMRoundRect*
0 Rectangle with rounded corners*
0 $1 Rounding radius*
0 $2 $3 $4 $5 $6 $7 $8 $9 X,Y pos of 4 corners*
0 Add a 4 corners polygon primitive as box body*
4,1,4,$2,$3,$4,$5,$6,$7,$8,$9,$2,$3,0*
0 Add four circle primitives for the rounded corners*
1,1,$1+$1,$2,$3*
1,1,$1+$1,$4,$5*
1,1,$1+$1,$6,$7*
1,1,$1+$1,$8,$9*
0 Add four rect primitives between the rounded corners*
20,1,$1+$1,$2,$3,$4,$5,0*
20,1,$1+$1,$4,$5,$6,$7,0*
20,1,$1+$1,$6,$7,$8,$9,0*
20,1,$1+$1,$8,$9,$2,$3,0*%
G04 Aperture macros list end*
%TA.AperFunction,SMDPad,CuDef*%
%ADD10R,0.610000X2.000000*%
%TD*%
%TA.AperFunction,SMDPad,CuDef*%
%ADD11R,2.680000X3.600000*%
%TD*%
%TA.AperFunction,SMDPad,CuDef*%
%ADD12RoundRect,0.150000X0.150000X0.700000X-0.150000X0.700000X-0.150000X-0.700000X0.150000X-0.700000X0*%
%TD*%
%TA.AperFunction,SMDPad,CuDef*%
%ADD13RoundRect,0.250000X0.250000X1.100000X-0.250000X1.100000X-0.250000X-1.100000X0.250000X-1.100000X0*%
%TD*%
%TA.AperFunction,ComponentPad*%
%ADD14RoundRect,0.250000X0.600000X-0.600000X0.600000X0.600000X-0.600000X0.600000X-0.600000X-0.600000X0*%
%TD*%
%TA.AperFunction,ComponentPad*%
%ADD15C,1.700000*%
%TD*%
%TA.AperFunction,ViaPad*%
%ADD16C,0.600000*%
%TD*%
%TA.AperFunction,Conductor*%
%ADD17C,0.200000*%
%TD*%
G04 APERTURE END LIST*
D10*
%TO.P,J1,1,Pin_1*%
%TO.N,5V*%
X137665500Y-105517740D03*
%TO.P,J1,2,Pin_2*%
%TO.N,INDEX*%
X138665500Y-105517740D03*
%TO.P,J1,3,Pin_3*%
%TO.N,5V*%
X139665500Y-105517740D03*
%TO.P,J1,4,Pin_4*%
%TO.N,DRIVE SELECT*%
X140665500Y-105517740D03*
%TO.P,J1,5,Pin_5*%
%TO.N,5V*%
X141665500Y-105517740D03*
%TO.P,J1,6,Pin_6*%
%TO.N,DISK CHANGE*%
X142665500Y-105517740D03*
%TO.P,J1,7,Pin_7*%
%TO.N,unconnected-(J1-Pin_7-Pad7)*%
X143665500Y-105517740D03*
%TO.P,J1,8,Pin_8*%
%TO.N,unconnected-(J1-Pin_8-Pad8)*%
X144665500Y-105517740D03*
%TO.P,J1,9,Pin_9*%
%TO.N,unconnected-(J1-Pin_9-Pad9)*%
X145665500Y-105517740D03*
%TO.P,J1,10,Pin_10*%
%TO.N,MOTOR ENABLE*%
X146665500Y-105517740D03*
%TO.P,J1,11,Pin_11*%
%TO.N,DENSITY*%
X147665500Y-105517740D03*
%TO.P,J1,12,Pin_12*%
%TO.N,DIRECTION*%
X148665500Y-105517740D03*
%TO.P,J1,13,Pin_13*%
%TO.N,unconnected-(J1-Pin_13-Pad13)*%
X149665500Y-105517740D03*
%TO.P,J1,14,Pin_14*%
%TO.N,STEP*%
X150665500Y-105517740D03*
%TO.P,J1,15,Pin_15*%
%TO.N,GND*%
X151665500Y-105517740D03*
%TO.P,J1,16,Pin_16*%
%TO.N,WRITE DATA*%
X152665500Y-105517740D03*
%TO.P,J1,17,Pin_17*%
%TO.N,GND*%
X153665500Y-105517740D03*
%TO.P,J1,18,Pin_18*%
%TO.N,WRITE GATE*%
X154665500Y-105517740D03*
%TO.P,J1,19,Pin_19*%
%TO.N,Net-(J1-Pin_19)*%
X155665500Y-105517740D03*
%TO.P,J1,20,Pin_20*%
%TO.N,TRACK 0*%
X156665500Y-105517740D03*
%TO.P,J1,21,Pin_21*%
%TO.N,GND*%
X157665500Y-105517740D03*
%TO.P,J1,22,Pin_22*%
%TO.N,WRITE PROTECT*%
X158665500Y-105517740D03*
%TO.P,J1,23,Pin_23*%
%TO.N,GND*%
X159665500Y-105517740D03*
%TO.P,J1,24,Pin_24*%
%TO.N,READ DATA*%
X160665500Y-105517740D03*
%TO.P,J1,25,Pin_25*%
%TO.N,GND*%
X161665500Y-105517740D03*
D11*
%TO.P,J1,MP*%
%TO.N,N/C*%
X134675500Y-108317740D03*
X164655500Y-108317740D03*
%TD*%
D12*
%TO.P,J3,1,Pin_1*%
%TO.N,unconnected-(J3-Pin_1-Pad1)*%
X177540500Y-84667740D03*
%TO.P,J3,2,Pin_2*%
%TO.N,unconnected-(J3-Pin_2-Pad2)*%
X176290500Y-84667740D03*
%TO.P,J3,3,Pin_3*%
%TO.N,unconnected-(J3-Pin_3-Pad3)*%
X175040500Y-84667740D03*
%TO.P,J3,4,Pin_4*%
%TO.N,5V*%
X173790500Y-84667740D03*
D13*
%TO.P,J3,MP,MountPin*%
%TO.N,unconnected-(J3-MountPin-PadMP)*%
X179390500Y-81467740D03*
X171940500Y-81467740D03*
%TD*%
D14*
%TO.P,J2,1,Pin_1*%
%TO.N,unconnected-(J2-Pin_1-Pad1)*%
X125165500Y-83857740D03*
D15*
%TO.P,J2,2,Pin_2*%
%TO.N,DENSITY*%
X125165500Y-81317740D03*
%TO.P,J2,3,Pin_3*%
%TO.N,unconnected-(J2-Pin_3-Pad3)*%
X127705500Y-83857740D03*
%TO.P,J2,4,Pin_4*%
%TO.N,unconnected-(J2-Pin_4-Pad4)*%
X127705500Y-81317740D03*
%TO.P,J2,5,Pin_5*%
%TO.N,unconnected-(J2-Pin_5-Pad5)*%
X130245500Y-83857740D03*
%TO.P,J2,6,Pin_6*%
%TO.N,unconnected-(J2-Pin_6-Pad6)*%
X130245500Y-81317740D03*
%TO.P,J2,7,Pin_7*%
%TO.N,unconnected-(J2-Pin_7-Pad7)*%
X132785500Y-83857740D03*
%TO.P,J2,8,Pin_8*%
%TO.N,INDEX*%
X132785500Y-81317740D03*
%TO.P,J2,9,Pin_9*%
%TO.N,unconnected-(J2-Pin_9-Pad9)*%
X135325500Y-83857740D03*
%TO.P,J2,10,Pin_10*%
%TO.N,unconnected-(J2-Pin_10-Pad10)*%
X135325500Y-81317740D03*
%TO.P,J2,11,Pin_11*%
%TO.N,unconnected-(J2-Pin_11-Pad11)*%
X137865500Y-83857740D03*
%TO.P,J2,12,Pin_12*%
%TO.N,DRIVE SELECT*%
X137865500Y-81317740D03*
%TO.P,J2,13,Pin_13*%
%TO.N,unconnected-(J2-Pin_13-Pad13)*%
X140405500Y-83857740D03*
%TO.P,J2,14,Pin_14*%
%TO.N,unconnected-(J2-Pin_14-Pad14)*%
X140405500Y-81317740D03*
%TO.P,J2,15,Pin_15*%
%TO.N,unconnected-(J2-Pin_15-Pad15)*%
X142945500Y-83857740D03*
%TO.P,J2,16,Pin_16*%
%TO.N,MOTOR ENABLE*%
X142945500Y-81317740D03*
%TO.P,J2,17,Pin_17*%
%TO.N,unconnected-(J2-Pin_17-Pad17)*%
X145485500Y-83857740D03*
%TO.P,J2,18,Pin_18*%
%TO.N,DIRECTION*%
X145485500Y-81317740D03*
%TO.P,J2,19,Pin_19*%
%TO.N,GND*%
X148025500Y-83857740D03*
%TO.P,J2,20,Pin_20*%
%TO.N,STEP*%
X148025500Y-81317740D03*
%TO.P,J2,21,Pin_21*%
%TO.N,GND*%
X150565500Y-83857740D03*
%TO.P,J2,22,Pin_22*%
%TO.N,WRITE DATA*%
X150565500Y-81317740D03*
%TO.P,J2,23,Pin_23*%
%TO.N,GND*%
X153105500Y-83857740D03*
%TO.P,J2,24,Pin_24*%
%TO.N,WRITE GATE*%
X153105500Y-81317740D03*
%TO.P,J2,25,Pin_25*%
%TO.N,Net-(J1-Pin_19)*%
X155645500Y-83857740D03*
%TO.P,J2,26,Pin_26*%
%TO.N,TRACK 0*%
X155645500Y-81317740D03*
%TO.P,J2,27,Pin_27*%
%TO.N,unconnected-(J2-Pin_27-Pad27)*%
X158185500Y-83857740D03*
%TO.P,J2,28,Pin_28*%
%TO.N,WRITE PROTECT*%
X158185500Y-81317740D03*
%TO.P,J2,29,Pin_29*%
%TO.N,GND*%
X160725500Y-83857740D03*
%TO.P,J2,30,Pin_30*%
%TO.N,READ DATA*%
X160725500Y-81317740D03*
%TO.P,J2,31,Pin_31*%
%TO.N,GND*%
X163265500Y-83857740D03*
%TO.P,J2,32,Pin_32*%
%TO.N,HEAD SELECT*%
X163265500Y-81317740D03*
%TO.P,J2,33,Pin_33*%
%TO.N,unconnected-(J2-Pin_33-Pad33)*%
X165805500Y-83857740D03*
%TO.P,J2,34,Pin_34*%
%TO.N,DISK CHANGE*%
X165805500Y-81317740D03*
%TD*%
D16*
%TO.N,GND*%
X149000000Y-86500000D03*
X157500000Y-98000000D03*
%TO.N,DENSITY*%
X147500000Y-101500000D03*
X125000000Y-91000000D03*
%TO.N,DISK CHANGE*%
X165000000Y-100000000D03*
X145000000Y-95000000D03*
%TD*%
D17*
%TO.N,INDEX*%
X133936500Y-84334500D02*
X133936500Y-82468740D01*
X138665500Y-105517740D02*
X138665500Y-89063500D01*
X138665500Y-89063500D02*
X133936500Y-84334500D01*
X133936500Y-82468740D02*
X132785500Y-81317740D01*
%TO.N,Net-(J1-Pin_19)*%
X155645500Y-83857740D02*
X155645500Y-105497740D01*
X155645500Y-105497740D02*
X155665500Y-105517740D01*
%TO.N,GND*%
X159665500Y-84917740D02*
X159665500Y-105517740D01*
X157665500Y-98165500D02*
X157500000Y-98000000D01*
X161665500Y-85457740D02*
X161665500Y-105517740D01*
X150565500Y-83857740D02*
X151665500Y-84957740D01*
X153665500Y-84417740D02*
X153665500Y-105517740D01*
X163265500Y-83857740D02*
X161665500Y-85457740D01*
X157665500Y-105517740D02*
X157665500Y-98165500D01*
X160725500Y-83857740D02*
X159665500Y-84917740D01*
X151665500Y-84957740D02*
X151665500Y-105517740D01*
X148025500Y-85525500D02*
X148025500Y-83857740D01*
X149000000Y-86500000D02*
X148025500Y-85525500D01*
X153105500Y-83857740D02*
X153665500Y-84417740D01*
%TO.N,READ DATA*%
X161876500Y-82468740D02*
X160725500Y-81317740D01*
X160665500Y-105517740D02*
X160665500Y-85545500D01*
X160665500Y-85545500D02*
X161876500Y-84334500D01*
X161876500Y-84334500D02*
X161876500Y-82468740D01*
%TO.N,DENSITY*%
X122500000Y-88500000D02*
X122500000Y-83983240D01*
X122500000Y-83983240D02*
X125165500Y-81317740D01*
X147665500Y-101665500D02*
X147500000Y-101500000D01*
X125000000Y-91000000D02*
X122500000Y-88500000D01*
X147665500Y-105517740D02*
X147665500Y-101665500D01*
%TO.N,DRIVE SELECT*%
X139016500Y-82468740D02*
X137865500Y-81317740D01*
X139016500Y-86668740D02*
X139016500Y-82468740D01*
X140665500Y-88317740D02*
X139016500Y-86668740D01*
X140665500Y-105517740D02*
X140665500Y-88317740D01*
%TO.N,5V*%
X141665500Y-106717740D02*
X141665500Y-105517740D01*
X137665500Y-106424740D02*
X138059500Y-106818740D01*
X141665500Y-106424740D02*
X145659500Y-110418740D01*
X173790500Y-108692740D02*
X173790500Y-84667740D01*
X141665500Y-105517740D02*
X141665500Y-106424740D01*
X139564500Y-106818740D02*
X139665500Y-106717740D01*
X138059500Y-106818740D02*
X139564500Y-106818740D01*
X172064500Y-110418740D02*
X173790500Y-108692740D01*
X140059500Y-106818740D02*
X141564500Y-106818740D01*
X137665500Y-105517740D02*
X137665500Y-106424740D01*
X139665500Y-106717740D02*
X139665500Y-105517740D01*
X139665500Y-106424740D02*
X140059500Y-106818740D01*
X139665500Y-105517740D02*
X139665500Y-106424740D01*
X145659500Y-110418740D02*
X172064500Y-110418740D01*
X141564500Y-106818740D02*
X141665500Y-106717740D01*
%TO.N,DIRECTION*%
X148665500Y-105517740D02*
X148665500Y-88665500D01*
X144334500Y-82468740D02*
X145485500Y-81317740D01*
X148665500Y-88665500D02*
X144334500Y-84334500D01*
X144334500Y-84334500D02*
X144334500Y-82468740D01*
%TO.N,WRITE GATE*%
X154665500Y-105517740D02*
X154665500Y-84743500D01*
X154665500Y-84743500D02*
X154256500Y-84334500D01*
X154256500Y-84334500D02*
X154256500Y-82468740D01*
X154256500Y-82468740D02*
X153105500Y-81317740D01*
%TO.N,DISK CHANGE*%
X142665500Y-105517740D02*
X142665500Y-97334500D01*
X165000000Y-100000000D02*
X164654500Y-99654500D01*
X164654500Y-82468740D02*
X165805500Y-81317740D01*
X142665500Y-97334500D02*
X145000000Y-95000000D01*
X164654500Y-99654500D02*
X164654500Y-82468740D01*
%TO.N,WRITE PROTECT*%
X158500000Y-96000000D02*
X158500000Y-85171000D01*
X158665500Y-105517740D02*
X158665500Y-99334500D01*
X159000000Y-99000000D02*
X159000000Y-96500000D01*
X158500000Y-85171000D02*
X159336500Y-84334500D01*
X159336500Y-82468740D02*
X158185500Y-81317740D01*
X159000000Y-96500000D02*
X158500000Y-96000000D01*
X159336500Y-84334500D02*
X159336500Y-82468740D01*
X158665500Y-99334500D02*
X159000000Y-99000000D01*
%TO.N,MOTOR ENABLE*%
X141794500Y-82468740D02*
X142945500Y-81317740D01*
X146665500Y-89205500D02*
X141794500Y-84334500D01*
X141794500Y-84334500D02*
X141794500Y-82468740D01*
X146665500Y-105517740D02*
X146665500Y-89205500D01*
%TO.N,WRITE DATA*%
X151716500Y-84096500D02*
X151716500Y-82468740D01*
X152665500Y-85045500D02*
X151716500Y-84096500D01*
X152665500Y-105517740D02*
X152665500Y-85045500D01*
X151716500Y-82468740D02*
X150565500Y-81317740D01*
%TO.N,STEP*%
X149176500Y-84334500D02*
X149176500Y-82468740D01*
X150665500Y-105517740D02*
X150665500Y-85823500D01*
X150665500Y-85823500D02*
X149176500Y-84334500D01*
X149176500Y-82468740D02*
X148025500Y-81317740D01*
%TO.N,TRACK 0*%
X156500000Y-97000000D02*
X157000000Y-96500000D01*
X156665500Y-105517740D02*
X156665500Y-98665500D01*
X156500000Y-98500000D02*
X156500000Y-97000000D01*
X156665500Y-98665500D02*
X156500000Y-98500000D01*
X156665500Y-105517740D02*
X156796500Y-105386740D01*
X157000000Y-82672240D02*
X155645500Y-81317740D01*
X157000000Y-96500000D02*
X157000000Y-82672240D01*
%TO.N,unconnected-(J3-MountPin-PadMP)*%
X171940500Y-81467740D02*
X179390500Y-81467740D01*
%TD*%
M02*
