%TF.GenerationSoftware,KiCad,Pcbnew,9.0.7*%
%TF.CreationDate,2026-02-17T16:16:18+01:00*%
%TF.ProjectId,FDD-Final,4644442d-4669-46e6-916c-2e6b69636164,rev?*%
%TF.SameCoordinates,Original*%
%TF.FileFunction,Legend,Top*%
%TF.FilePolarity,Positive*%
%FSLAX46Y46*%
G04 Gerber Fmt 4.6, Leading zero omitted, Abs format (unit mm)*
G04 Created by KiCad (PCBNEW 9.0.7) date 2026-02-17 16:16:18*
%MOMM*%
%LPD*%
G01*
G04 APERTURE LIST*
%ADD10C,0.187500*%
%ADD11C,0.125000*%
%ADD12C,0.150000*%
%ADD13C,0.120000*%
%ADD14C,0.100000*%
G04 APERTURE END LIST*
D10*
X118266212Y-74719892D02*
X118301926Y-74684178D01*
X118301926Y-74684178D02*
X118373355Y-74648464D01*
X118373355Y-74648464D02*
X118551926Y-74648464D01*
X118551926Y-74648464D02*
X118623355Y-74684178D01*
X118623355Y-74684178D02*
X118659069Y-74719892D01*
X118659069Y-74719892D02*
X118694783Y-74791321D01*
X118694783Y-74791321D02*
X118694783Y-74862750D01*
X118694783Y-74862750D02*
X118659069Y-74969892D01*
X118659069Y-74969892D02*
X118230497Y-75398464D01*
X118230497Y-75398464D02*
X118694783Y-75398464D01*
X119337641Y-74648464D02*
X119194783Y-74648464D01*
X119194783Y-74648464D02*
X119123355Y-74684178D01*
X119123355Y-74684178D02*
X119087641Y-74719892D01*
X119087641Y-74719892D02*
X119016212Y-74827035D01*
X119016212Y-74827035D02*
X118980498Y-74969892D01*
X118980498Y-74969892D02*
X118980498Y-75255607D01*
X118980498Y-75255607D02*
X119016212Y-75327035D01*
X119016212Y-75327035D02*
X119051926Y-75362750D01*
X119051926Y-75362750D02*
X119123355Y-75398464D01*
X119123355Y-75398464D02*
X119266212Y-75398464D01*
X119266212Y-75398464D02*
X119337641Y-75362750D01*
X119337641Y-75362750D02*
X119373355Y-75327035D01*
X119373355Y-75327035D02*
X119409069Y-75255607D01*
X119409069Y-75255607D02*
X119409069Y-75077035D01*
X119409069Y-75077035D02*
X119373355Y-75005607D01*
X119373355Y-75005607D02*
X119337641Y-74969892D01*
X119337641Y-74969892D02*
X119266212Y-74934178D01*
X119266212Y-74934178D02*
X119123355Y-74934178D01*
X119123355Y-74934178D02*
X119051926Y-74969892D01*
X119051926Y-74969892D02*
X119016212Y-75005607D01*
X119016212Y-75005607D02*
X118980498Y-75077035D01*
X119730498Y-75112750D02*
X120301927Y-75112750D01*
X120659069Y-75398464D02*
X120659069Y-74648464D01*
X120659069Y-74648464D02*
X120944783Y-74648464D01*
X120944783Y-74648464D02*
X121016212Y-74684178D01*
X121016212Y-74684178D02*
X121051926Y-74719892D01*
X121051926Y-74719892D02*
X121087640Y-74791321D01*
X121087640Y-74791321D02*
X121087640Y-74898464D01*
X121087640Y-74898464D02*
X121051926Y-74969892D01*
X121051926Y-74969892D02*
X121016212Y-75005607D01*
X121016212Y-75005607D02*
X120944783Y-75041321D01*
X120944783Y-75041321D02*
X120659069Y-75041321D01*
X121409069Y-75398464D02*
X121409069Y-74898464D01*
X121409069Y-74648464D02*
X121373355Y-74684178D01*
X121373355Y-74684178D02*
X121409069Y-74719892D01*
X121409069Y-74719892D02*
X121444783Y-74684178D01*
X121444783Y-74684178D02*
X121409069Y-74648464D01*
X121409069Y-74648464D02*
X121409069Y-74719892D01*
X121766212Y-74898464D02*
X121766212Y-75398464D01*
X121766212Y-74969892D02*
X121801926Y-74934178D01*
X121801926Y-74934178D02*
X121873355Y-74898464D01*
X121873355Y-74898464D02*
X121980498Y-74898464D01*
X121980498Y-74898464D02*
X122051926Y-74934178D01*
X122051926Y-74934178D02*
X122087641Y-75005607D01*
X122087641Y-75005607D02*
X122087641Y-75398464D01*
X122909069Y-74898464D02*
X123194783Y-74898464D01*
X123016212Y-74648464D02*
X123016212Y-75291321D01*
X123016212Y-75291321D02*
X123051926Y-75362750D01*
X123051926Y-75362750D02*
X123123355Y-75398464D01*
X123123355Y-75398464D02*
X123194783Y-75398464D01*
X123551926Y-75398464D02*
X123480497Y-75362750D01*
X123480497Y-75362750D02*
X123444783Y-75327035D01*
X123444783Y-75327035D02*
X123409069Y-75255607D01*
X123409069Y-75255607D02*
X123409069Y-75041321D01*
X123409069Y-75041321D02*
X123444783Y-74969892D01*
X123444783Y-74969892D02*
X123480497Y-74934178D01*
X123480497Y-74934178D02*
X123551926Y-74898464D01*
X123551926Y-74898464D02*
X123659069Y-74898464D01*
X123659069Y-74898464D02*
X123730497Y-74934178D01*
X123730497Y-74934178D02*
X123766212Y-74969892D01*
X123766212Y-74969892D02*
X123801926Y-75041321D01*
X123801926Y-75041321D02*
X123801926Y-75255607D01*
X123801926Y-75255607D02*
X123766212Y-75327035D01*
X123766212Y-75327035D02*
X123730497Y-75362750D01*
X123730497Y-75362750D02*
X123659069Y-75398464D01*
X123659069Y-75398464D02*
X123551926Y-75398464D01*
X124623354Y-74648464D02*
X125087640Y-74648464D01*
X125087640Y-74648464D02*
X124837640Y-74934178D01*
X124837640Y-74934178D02*
X124944783Y-74934178D01*
X124944783Y-74934178D02*
X125016212Y-74969892D01*
X125016212Y-74969892D02*
X125051926Y-75005607D01*
X125051926Y-75005607D02*
X125087640Y-75077035D01*
X125087640Y-75077035D02*
X125087640Y-75255607D01*
X125087640Y-75255607D02*
X125051926Y-75327035D01*
X125051926Y-75327035D02*
X125016212Y-75362750D01*
X125016212Y-75362750D02*
X124944783Y-75398464D01*
X124944783Y-75398464D02*
X124730497Y-75398464D01*
X124730497Y-75398464D02*
X124659069Y-75362750D01*
X124659069Y-75362750D02*
X124623354Y-75327035D01*
X125730498Y-74898464D02*
X125730498Y-75398464D01*
X125551926Y-74612750D02*
X125373355Y-75148464D01*
X125373355Y-75148464D02*
X125837640Y-75148464D01*
X126123355Y-75112750D02*
X126694784Y-75112750D01*
X127051926Y-75398464D02*
X127051926Y-74648464D01*
X127051926Y-74648464D02*
X127337640Y-74648464D01*
X127337640Y-74648464D02*
X127409069Y-74684178D01*
X127409069Y-74684178D02*
X127444783Y-74719892D01*
X127444783Y-74719892D02*
X127480497Y-74791321D01*
X127480497Y-74791321D02*
X127480497Y-74898464D01*
X127480497Y-74898464D02*
X127444783Y-74969892D01*
X127444783Y-74969892D02*
X127409069Y-75005607D01*
X127409069Y-75005607D02*
X127337640Y-75041321D01*
X127337640Y-75041321D02*
X127051926Y-75041321D01*
X127801926Y-75398464D02*
X127801926Y-74898464D01*
X127801926Y-74648464D02*
X127766212Y-74684178D01*
X127766212Y-74684178D02*
X127801926Y-74719892D01*
X127801926Y-74719892D02*
X127837640Y-74684178D01*
X127837640Y-74684178D02*
X127801926Y-74648464D01*
X127801926Y-74648464D02*
X127801926Y-74719892D01*
X128159069Y-74898464D02*
X128159069Y-75398464D01*
X128159069Y-74969892D02*
X128194783Y-74934178D01*
X128194783Y-74934178D02*
X128266212Y-74898464D01*
X128266212Y-74898464D02*
X128373355Y-74898464D01*
X128373355Y-74898464D02*
X128444783Y-74934178D01*
X128444783Y-74934178D02*
X128480498Y-75005607D01*
X128480498Y-75005607D02*
X128480498Y-75398464D01*
X129730498Y-75398464D02*
X129730498Y-75005607D01*
X129730498Y-75005607D02*
X129694783Y-74934178D01*
X129694783Y-74934178D02*
X129623355Y-74898464D01*
X129623355Y-74898464D02*
X129480498Y-74898464D01*
X129480498Y-74898464D02*
X129409069Y-74934178D01*
X129730498Y-75362750D02*
X129659069Y-75398464D01*
X129659069Y-75398464D02*
X129480498Y-75398464D01*
X129480498Y-75398464D02*
X129409069Y-75362750D01*
X129409069Y-75362750D02*
X129373355Y-75291321D01*
X129373355Y-75291321D02*
X129373355Y-75219892D01*
X129373355Y-75219892D02*
X129409069Y-75148464D01*
X129409069Y-75148464D02*
X129480498Y-75112750D01*
X129480498Y-75112750D02*
X129659069Y-75112750D01*
X129659069Y-75112750D02*
X129730498Y-75077035D01*
X130409069Y-75398464D02*
X130409069Y-74648464D01*
X130409069Y-75362750D02*
X130337640Y-75398464D01*
X130337640Y-75398464D02*
X130194783Y-75398464D01*
X130194783Y-75398464D02*
X130123354Y-75362750D01*
X130123354Y-75362750D02*
X130087640Y-75327035D01*
X130087640Y-75327035D02*
X130051926Y-75255607D01*
X130051926Y-75255607D02*
X130051926Y-75041321D01*
X130051926Y-75041321D02*
X130087640Y-74969892D01*
X130087640Y-74969892D02*
X130123354Y-74934178D01*
X130123354Y-74934178D02*
X130194783Y-74898464D01*
X130194783Y-74898464D02*
X130337640Y-74898464D01*
X130337640Y-74898464D02*
X130409069Y-74934178D01*
X131087640Y-75398464D02*
X131087640Y-75005607D01*
X131087640Y-75005607D02*
X131051925Y-74934178D01*
X131051925Y-74934178D02*
X130980497Y-74898464D01*
X130980497Y-74898464D02*
X130837640Y-74898464D01*
X130837640Y-74898464D02*
X130766211Y-74934178D01*
X131087640Y-75362750D02*
X131016211Y-75398464D01*
X131016211Y-75398464D02*
X130837640Y-75398464D01*
X130837640Y-75398464D02*
X130766211Y-75362750D01*
X130766211Y-75362750D02*
X130730497Y-75291321D01*
X130730497Y-75291321D02*
X130730497Y-75219892D01*
X130730497Y-75219892D02*
X130766211Y-75148464D01*
X130766211Y-75148464D02*
X130837640Y-75112750D01*
X130837640Y-75112750D02*
X131016211Y-75112750D01*
X131016211Y-75112750D02*
X131087640Y-75077035D01*
X131444782Y-74898464D02*
X131444782Y-75648464D01*
X131444782Y-74934178D02*
X131516211Y-74898464D01*
X131516211Y-74898464D02*
X131659068Y-74898464D01*
X131659068Y-74898464D02*
X131730496Y-74934178D01*
X131730496Y-74934178D02*
X131766211Y-74969892D01*
X131766211Y-74969892D02*
X131801925Y-75041321D01*
X131801925Y-75041321D02*
X131801925Y-75255607D01*
X131801925Y-75255607D02*
X131766211Y-75327035D01*
X131766211Y-75327035D02*
X131730496Y-75362750D01*
X131730496Y-75362750D02*
X131659068Y-75398464D01*
X131659068Y-75398464D02*
X131516211Y-75398464D01*
X131516211Y-75398464D02*
X131444782Y-75362750D01*
X132016210Y-74898464D02*
X132301924Y-74898464D01*
X132123353Y-74648464D02*
X132123353Y-75291321D01*
X132123353Y-75291321D02*
X132159067Y-75362750D01*
X132159067Y-75362750D02*
X132230496Y-75398464D01*
X132230496Y-75398464D02*
X132301924Y-75398464D01*
X132837638Y-75362750D02*
X132766210Y-75398464D01*
X132766210Y-75398464D02*
X132623353Y-75398464D01*
X132623353Y-75398464D02*
X132551924Y-75362750D01*
X132551924Y-75362750D02*
X132516210Y-75291321D01*
X132516210Y-75291321D02*
X132516210Y-75005607D01*
X132516210Y-75005607D02*
X132551924Y-74934178D01*
X132551924Y-74934178D02*
X132623353Y-74898464D01*
X132623353Y-74898464D02*
X132766210Y-74898464D01*
X132766210Y-74898464D02*
X132837638Y-74934178D01*
X132837638Y-74934178D02*
X132873353Y-75005607D01*
X132873353Y-75005607D02*
X132873353Y-75077035D01*
X132873353Y-75077035D02*
X132516210Y-75148464D01*
X133194781Y-75398464D02*
X133194781Y-74898464D01*
X133194781Y-75041321D02*
X133230495Y-74969892D01*
X133230495Y-74969892D02*
X133266210Y-74934178D01*
X133266210Y-74934178D02*
X133337638Y-74898464D01*
X133337638Y-74898464D02*
X133409067Y-74898464D01*
X134230496Y-75398464D02*
X134230496Y-74648464D01*
X134230496Y-74934178D02*
X134301925Y-74898464D01*
X134301925Y-74898464D02*
X134444782Y-74898464D01*
X134444782Y-74898464D02*
X134516210Y-74934178D01*
X134516210Y-74934178D02*
X134551925Y-74969892D01*
X134551925Y-74969892D02*
X134587639Y-75041321D01*
X134587639Y-75041321D02*
X134587639Y-75255607D01*
X134587639Y-75255607D02*
X134551925Y-75327035D01*
X134551925Y-75327035D02*
X134516210Y-75362750D01*
X134516210Y-75362750D02*
X134444782Y-75398464D01*
X134444782Y-75398464D02*
X134301925Y-75398464D01*
X134301925Y-75398464D02*
X134230496Y-75362750D01*
X134837638Y-74898464D02*
X135016210Y-75398464D01*
X135194781Y-74898464D02*
X135016210Y-75398464D01*
X135016210Y-75398464D02*
X134944781Y-75577035D01*
X134944781Y-75577035D02*
X134909067Y-75612750D01*
X134909067Y-75612750D02*
X134837638Y-75648464D01*
X136194782Y-74648464D02*
X136337639Y-74648464D01*
X136337639Y-74648464D02*
X136409068Y-74684178D01*
X136409068Y-74684178D02*
X136480496Y-74755607D01*
X136480496Y-74755607D02*
X136516211Y-74898464D01*
X136516211Y-74898464D02*
X136516211Y-75148464D01*
X136516211Y-75148464D02*
X136480496Y-75291321D01*
X136480496Y-75291321D02*
X136409068Y-75362750D01*
X136409068Y-75362750D02*
X136337639Y-75398464D01*
X136337639Y-75398464D02*
X136194782Y-75398464D01*
X136194782Y-75398464D02*
X136123354Y-75362750D01*
X136123354Y-75362750D02*
X136051925Y-75291321D01*
X136051925Y-75291321D02*
X136016211Y-75148464D01*
X136016211Y-75148464D02*
X136016211Y-74898464D01*
X136016211Y-74898464D02*
X136051925Y-74755607D01*
X136051925Y-74755607D02*
X136123354Y-74684178D01*
X136123354Y-74684178D02*
X136194782Y-74648464D01*
X136944782Y-75398464D02*
X136873353Y-75362750D01*
X136873353Y-75362750D02*
X136837639Y-75291321D01*
X136837639Y-75291321D02*
X136837639Y-74648464D01*
X137337639Y-75398464D02*
X137266210Y-75362750D01*
X137266210Y-75362750D02*
X137230496Y-75291321D01*
X137230496Y-75291321D02*
X137230496Y-74648464D01*
X137623353Y-75398464D02*
X137623353Y-74898464D01*
X137623353Y-74648464D02*
X137587639Y-74684178D01*
X137587639Y-74684178D02*
X137623353Y-74719892D01*
X137623353Y-74719892D02*
X137659067Y-74684178D01*
X137659067Y-74684178D02*
X137623353Y-74648464D01*
X137623353Y-74648464D02*
X137623353Y-74719892D01*
X137909067Y-75398464D02*
X138301925Y-74898464D01*
X137909067Y-74898464D02*
X138301925Y-75398464D01*
X138551925Y-74719892D02*
X138587639Y-74684178D01*
X138587639Y-74684178D02*
X138659068Y-74648464D01*
X138659068Y-74648464D02*
X138837639Y-74648464D01*
X138837639Y-74648464D02*
X138909068Y-74684178D01*
X138909068Y-74684178D02*
X138944782Y-74719892D01*
X138944782Y-74719892D02*
X138980496Y-74791321D01*
X138980496Y-74791321D02*
X138980496Y-74862750D01*
X138980496Y-74862750D02*
X138944782Y-74969892D01*
X138944782Y-74969892D02*
X138516210Y-75398464D01*
X138516210Y-75398464D02*
X138980496Y-75398464D01*
X139230496Y-74648464D02*
X139730496Y-74648464D01*
X139730496Y-74648464D02*
X139409068Y-75398464D01*
X140551925Y-74612750D02*
X139909068Y-75577035D01*
X140944782Y-74648464D02*
X141087639Y-74648464D01*
X141087639Y-74648464D02*
X141159068Y-74684178D01*
X141159068Y-74684178D02*
X141230496Y-74755607D01*
X141230496Y-74755607D02*
X141266211Y-74898464D01*
X141266211Y-74898464D02*
X141266211Y-75148464D01*
X141266211Y-75148464D02*
X141230496Y-75291321D01*
X141230496Y-75291321D02*
X141159068Y-75362750D01*
X141159068Y-75362750D02*
X141087639Y-75398464D01*
X141087639Y-75398464D02*
X140944782Y-75398464D01*
X140944782Y-75398464D02*
X140873354Y-75362750D01*
X140873354Y-75362750D02*
X140801925Y-75291321D01*
X140801925Y-75291321D02*
X140766211Y-75148464D01*
X140766211Y-75148464D02*
X140766211Y-74898464D01*
X140766211Y-74898464D02*
X140801925Y-74755607D01*
X140801925Y-74755607D02*
X140873354Y-74684178D01*
X140873354Y-74684178D02*
X140944782Y-74648464D01*
X141694782Y-75398464D02*
X141623353Y-75362750D01*
X141623353Y-75362750D02*
X141587639Y-75291321D01*
X141587639Y-75291321D02*
X141587639Y-74648464D01*
X142087639Y-75398464D02*
X142016210Y-75362750D01*
X142016210Y-75362750D02*
X141980496Y-75291321D01*
X141980496Y-75291321D02*
X141980496Y-74648464D01*
X142373353Y-75398464D02*
X142373353Y-74898464D01*
X142373353Y-74648464D02*
X142337639Y-74684178D01*
X142337639Y-74684178D02*
X142373353Y-74719892D01*
X142373353Y-74719892D02*
X142409067Y-74684178D01*
X142409067Y-74684178D02*
X142373353Y-74648464D01*
X142373353Y-74648464D02*
X142373353Y-74719892D01*
X142659067Y-75398464D02*
X143051925Y-74898464D01*
X142659067Y-74898464D02*
X143051925Y-75398464D01*
X143301925Y-74719892D02*
X143337639Y-74684178D01*
X143337639Y-74684178D02*
X143409068Y-74648464D01*
X143409068Y-74648464D02*
X143587639Y-74648464D01*
X143587639Y-74648464D02*
X143659068Y-74684178D01*
X143659068Y-74684178D02*
X143694782Y-74719892D01*
X143694782Y-74719892D02*
X143730496Y-74791321D01*
X143730496Y-74791321D02*
X143730496Y-74862750D01*
X143730496Y-74862750D02*
X143694782Y-74969892D01*
X143694782Y-74969892D02*
X143266210Y-75398464D01*
X143266210Y-75398464D02*
X143730496Y-75398464D01*
X144373354Y-74648464D02*
X144230496Y-74648464D01*
X144230496Y-74648464D02*
X144159068Y-74684178D01*
X144159068Y-74684178D02*
X144123354Y-74719892D01*
X144123354Y-74719892D02*
X144051925Y-74827035D01*
X144051925Y-74827035D02*
X144016211Y-74969892D01*
X144016211Y-74969892D02*
X144016211Y-75255607D01*
X144016211Y-75255607D02*
X144051925Y-75327035D01*
X144051925Y-75327035D02*
X144087639Y-75362750D01*
X144087639Y-75362750D02*
X144159068Y-75398464D01*
X144159068Y-75398464D02*
X144301925Y-75398464D01*
X144301925Y-75398464D02*
X144373354Y-75362750D01*
X144373354Y-75362750D02*
X144409068Y-75327035D01*
X144409068Y-75327035D02*
X144444782Y-75255607D01*
X144444782Y-75255607D02*
X144444782Y-75077035D01*
X144444782Y-75077035D02*
X144409068Y-75005607D01*
X144409068Y-75005607D02*
X144373354Y-74969892D01*
X144373354Y-74969892D02*
X144301925Y-74934178D01*
X144301925Y-74934178D02*
X144159068Y-74934178D01*
X144159068Y-74934178D02*
X144087639Y-74969892D01*
X144087639Y-74969892D02*
X144051925Y-75005607D01*
X144051925Y-75005607D02*
X144016211Y-75077035D01*
D11*
X160701283Y-75127337D02*
X160701283Y-74627337D01*
X160701283Y-74627337D02*
X160891759Y-74627337D01*
X160891759Y-74627337D02*
X160939378Y-74651147D01*
X160939378Y-74651147D02*
X160963188Y-74674956D01*
X160963188Y-74674956D02*
X160986997Y-74722575D01*
X160986997Y-74722575D02*
X160986997Y-74794004D01*
X160986997Y-74794004D02*
X160963188Y-74841623D01*
X160963188Y-74841623D02*
X160939378Y-74865432D01*
X160939378Y-74865432D02*
X160891759Y-74889242D01*
X160891759Y-74889242D02*
X160701283Y-74889242D01*
X161439378Y-75127337D02*
X161201283Y-75127337D01*
X161201283Y-75127337D02*
X161201283Y-74627337D01*
X161606045Y-74627337D02*
X161606045Y-75032099D01*
X161606045Y-75032099D02*
X161629855Y-75079718D01*
X161629855Y-75079718D02*
X161653664Y-75103528D01*
X161653664Y-75103528D02*
X161701283Y-75127337D01*
X161701283Y-75127337D02*
X161796521Y-75127337D01*
X161796521Y-75127337D02*
X161844140Y-75103528D01*
X161844140Y-75103528D02*
X161867950Y-75079718D01*
X161867950Y-75079718D02*
X161891759Y-75032099D01*
X161891759Y-75032099D02*
X161891759Y-74627337D01*
X162391760Y-74651147D02*
X162344141Y-74627337D01*
X162344141Y-74627337D02*
X162272712Y-74627337D01*
X162272712Y-74627337D02*
X162201284Y-74651147D01*
X162201284Y-74651147D02*
X162153665Y-74698766D01*
X162153665Y-74698766D02*
X162129855Y-74746385D01*
X162129855Y-74746385D02*
X162106046Y-74841623D01*
X162106046Y-74841623D02*
X162106046Y-74913051D01*
X162106046Y-74913051D02*
X162129855Y-75008289D01*
X162129855Y-75008289D02*
X162153665Y-75055908D01*
X162153665Y-75055908D02*
X162201284Y-75103528D01*
X162201284Y-75103528D02*
X162272712Y-75127337D01*
X162272712Y-75127337D02*
X162320331Y-75127337D01*
X162320331Y-75127337D02*
X162391760Y-75103528D01*
X162391760Y-75103528D02*
X162415569Y-75079718D01*
X162415569Y-75079718D02*
X162415569Y-74913051D01*
X162415569Y-74913051D02*
X162320331Y-74913051D01*
X163010807Y-75127337D02*
X163010807Y-74627337D01*
X163248902Y-75127337D02*
X163248902Y-74627337D01*
X163248902Y-74627337D02*
X163534616Y-75127337D01*
X163534616Y-75127337D02*
X163534616Y-74627337D01*
X164153664Y-75127337D02*
X164153664Y-74627337D01*
X164153664Y-74627337D02*
X164320331Y-74984480D01*
X164320331Y-74984480D02*
X164486997Y-74627337D01*
X164486997Y-74627337D02*
X164486997Y-75127337D01*
X164820331Y-74627337D02*
X164915569Y-74627337D01*
X164915569Y-74627337D02*
X164963188Y-74651147D01*
X164963188Y-74651147D02*
X165010807Y-74698766D01*
X165010807Y-74698766D02*
X165034617Y-74794004D01*
X165034617Y-74794004D02*
X165034617Y-74960670D01*
X165034617Y-74960670D02*
X165010807Y-75055908D01*
X165010807Y-75055908D02*
X164963188Y-75103528D01*
X164963188Y-75103528D02*
X164915569Y-75127337D01*
X164915569Y-75127337D02*
X164820331Y-75127337D01*
X164820331Y-75127337D02*
X164772712Y-75103528D01*
X164772712Y-75103528D02*
X164725093Y-75055908D01*
X164725093Y-75055908D02*
X164701284Y-74960670D01*
X164701284Y-74960670D02*
X164701284Y-74794004D01*
X164701284Y-74794004D02*
X164725093Y-74698766D01*
X164725093Y-74698766D02*
X164772712Y-74651147D01*
X164772712Y-74651147D02*
X164820331Y-74627337D01*
X165486998Y-75127337D02*
X165248903Y-75127337D01*
X165248903Y-75127337D02*
X165248903Y-74627337D01*
X165653665Y-74865432D02*
X165820332Y-74865432D01*
X165891760Y-75127337D02*
X165653665Y-75127337D01*
X165653665Y-75127337D02*
X165653665Y-74627337D01*
X165653665Y-74627337D02*
X165891760Y-74627337D01*
X166058427Y-74627337D02*
X166391760Y-75127337D01*
X166391760Y-74627337D02*
X166058427Y-75127337D01*
X166963188Y-75127337D02*
X166963188Y-74627337D01*
X167367950Y-74865432D02*
X167201283Y-74865432D01*
X167201283Y-75127337D02*
X167201283Y-74627337D01*
X167201283Y-74627337D02*
X167439378Y-74627337D01*
X168296520Y-75079718D02*
X168272711Y-75103528D01*
X168272711Y-75103528D02*
X168201282Y-75127337D01*
X168201282Y-75127337D02*
X168153663Y-75127337D01*
X168153663Y-75127337D02*
X168082235Y-75103528D01*
X168082235Y-75103528D02*
X168034616Y-75055908D01*
X168034616Y-75055908D02*
X168010806Y-75008289D01*
X168010806Y-75008289D02*
X167986997Y-74913051D01*
X167986997Y-74913051D02*
X167986997Y-74841623D01*
X167986997Y-74841623D02*
X168010806Y-74746385D01*
X168010806Y-74746385D02*
X168034616Y-74698766D01*
X168034616Y-74698766D02*
X168082235Y-74651147D01*
X168082235Y-74651147D02*
X168153663Y-74627337D01*
X168153663Y-74627337D02*
X168201282Y-74627337D01*
X168201282Y-74627337D02*
X168272711Y-74651147D01*
X168272711Y-74651147D02*
X168296520Y-74674956D01*
X168606044Y-74627337D02*
X168701282Y-74627337D01*
X168701282Y-74627337D02*
X168748901Y-74651147D01*
X168748901Y-74651147D02*
X168796520Y-74698766D01*
X168796520Y-74698766D02*
X168820330Y-74794004D01*
X168820330Y-74794004D02*
X168820330Y-74960670D01*
X168820330Y-74960670D02*
X168796520Y-75055908D01*
X168796520Y-75055908D02*
X168748901Y-75103528D01*
X168748901Y-75103528D02*
X168701282Y-75127337D01*
X168701282Y-75127337D02*
X168606044Y-75127337D01*
X168606044Y-75127337D02*
X168558425Y-75103528D01*
X168558425Y-75103528D02*
X168510806Y-75055908D01*
X168510806Y-75055908D02*
X168486997Y-74960670D01*
X168486997Y-74960670D02*
X168486997Y-74794004D01*
X168486997Y-74794004D02*
X168510806Y-74698766D01*
X168510806Y-74698766D02*
X168558425Y-74651147D01*
X168558425Y-74651147D02*
X168606044Y-74627337D01*
X169034616Y-75127337D02*
X169034616Y-74627337D01*
X169034616Y-74627337D02*
X169320330Y-75127337D01*
X169320330Y-75127337D02*
X169320330Y-74627337D01*
X169558426Y-75127337D02*
X169558426Y-74627337D01*
X169558426Y-74627337D02*
X169844140Y-75127337D01*
X169844140Y-75127337D02*
X169844140Y-74627337D01*
X170082236Y-74865432D02*
X170248903Y-74865432D01*
X170320331Y-75127337D02*
X170082236Y-75127337D01*
X170082236Y-75127337D02*
X170082236Y-74627337D01*
X170082236Y-74627337D02*
X170320331Y-74627337D01*
X170820331Y-75079718D02*
X170796522Y-75103528D01*
X170796522Y-75103528D02*
X170725093Y-75127337D01*
X170725093Y-75127337D02*
X170677474Y-75127337D01*
X170677474Y-75127337D02*
X170606046Y-75103528D01*
X170606046Y-75103528D02*
X170558427Y-75055908D01*
X170558427Y-75055908D02*
X170534617Y-75008289D01*
X170534617Y-75008289D02*
X170510808Y-74913051D01*
X170510808Y-74913051D02*
X170510808Y-74841623D01*
X170510808Y-74841623D02*
X170534617Y-74746385D01*
X170534617Y-74746385D02*
X170558427Y-74698766D01*
X170558427Y-74698766D02*
X170606046Y-74651147D01*
X170606046Y-74651147D02*
X170677474Y-74627337D01*
X170677474Y-74627337D02*
X170725093Y-74627337D01*
X170725093Y-74627337D02*
X170796522Y-74651147D01*
X170796522Y-74651147D02*
X170820331Y-74674956D01*
X170963189Y-74627337D02*
X171248903Y-74627337D01*
X171106046Y-75127337D02*
X171106046Y-74627337D01*
X171415569Y-74865432D02*
X171582236Y-74865432D01*
X171653664Y-75127337D02*
X171415569Y-75127337D01*
X171415569Y-75127337D02*
X171415569Y-74627337D01*
X171415569Y-74627337D02*
X171653664Y-74627337D01*
X171867950Y-75127337D02*
X171867950Y-74627337D01*
X171867950Y-74627337D02*
X171986998Y-74627337D01*
X171986998Y-74627337D02*
X172058426Y-74651147D01*
X172058426Y-74651147D02*
X172106045Y-74698766D01*
X172106045Y-74698766D02*
X172129855Y-74746385D01*
X172129855Y-74746385D02*
X172153664Y-74841623D01*
X172153664Y-74841623D02*
X172153664Y-74913051D01*
X172153664Y-74913051D02*
X172129855Y-75008289D01*
X172129855Y-75008289D02*
X172106045Y-75055908D01*
X172106045Y-75055908D02*
X172058426Y-75103528D01*
X172058426Y-75103528D02*
X171986998Y-75127337D01*
X171986998Y-75127337D02*
X171867950Y-75127337D01*
X172915569Y-74865432D02*
X172748902Y-74865432D01*
X172748902Y-75127337D02*
X172748902Y-74627337D01*
X172748902Y-74627337D02*
X172986997Y-74627337D01*
X173415568Y-75127337D02*
X173177473Y-75127337D01*
X173177473Y-75127337D02*
X173177473Y-74627337D01*
X173677473Y-74627337D02*
X173772711Y-74627337D01*
X173772711Y-74627337D02*
X173820330Y-74651147D01*
X173820330Y-74651147D02*
X173867949Y-74698766D01*
X173867949Y-74698766D02*
X173891759Y-74794004D01*
X173891759Y-74794004D02*
X173891759Y-74960670D01*
X173891759Y-74960670D02*
X173867949Y-75055908D01*
X173867949Y-75055908D02*
X173820330Y-75103528D01*
X173820330Y-75103528D02*
X173772711Y-75127337D01*
X173772711Y-75127337D02*
X173677473Y-75127337D01*
X173677473Y-75127337D02*
X173629854Y-75103528D01*
X173629854Y-75103528D02*
X173582235Y-75055908D01*
X173582235Y-75055908D02*
X173558426Y-74960670D01*
X173558426Y-74960670D02*
X173558426Y-74794004D01*
X173558426Y-74794004D02*
X173582235Y-74698766D01*
X173582235Y-74698766D02*
X173629854Y-74651147D01*
X173629854Y-74651147D02*
X173677473Y-74627337D01*
X174106045Y-75127337D02*
X174106045Y-74627337D01*
X174106045Y-74627337D02*
X174296521Y-74627337D01*
X174296521Y-74627337D02*
X174344140Y-74651147D01*
X174344140Y-74651147D02*
X174367950Y-74674956D01*
X174367950Y-74674956D02*
X174391759Y-74722575D01*
X174391759Y-74722575D02*
X174391759Y-74794004D01*
X174391759Y-74794004D02*
X174367950Y-74841623D01*
X174367950Y-74841623D02*
X174344140Y-74865432D01*
X174344140Y-74865432D02*
X174296521Y-74889242D01*
X174296521Y-74889242D02*
X174106045Y-74889242D01*
X174606045Y-75127337D02*
X174606045Y-74627337D01*
X174606045Y-74627337D02*
X174796521Y-74627337D01*
X174796521Y-74627337D02*
X174844140Y-74651147D01*
X174844140Y-74651147D02*
X174867950Y-74674956D01*
X174867950Y-74674956D02*
X174891759Y-74722575D01*
X174891759Y-74722575D02*
X174891759Y-74794004D01*
X174891759Y-74794004D02*
X174867950Y-74841623D01*
X174867950Y-74841623D02*
X174844140Y-74865432D01*
X174844140Y-74865432D02*
X174796521Y-74889242D01*
X174796521Y-74889242D02*
X174606045Y-74889242D01*
X175201283Y-74889242D02*
X175201283Y-75127337D01*
X175034617Y-74627337D02*
X175201283Y-74889242D01*
X175201283Y-74889242D02*
X175367950Y-74627337D01*
X175915568Y-75127337D02*
X175915568Y-74627337D01*
X175915568Y-74627337D02*
X176034616Y-74627337D01*
X176034616Y-74627337D02*
X176106044Y-74651147D01*
X176106044Y-74651147D02*
X176153663Y-74698766D01*
X176153663Y-74698766D02*
X176177473Y-74746385D01*
X176177473Y-74746385D02*
X176201282Y-74841623D01*
X176201282Y-74841623D02*
X176201282Y-74913051D01*
X176201282Y-74913051D02*
X176177473Y-75008289D01*
X176177473Y-75008289D02*
X176153663Y-75055908D01*
X176153663Y-75055908D02*
X176106044Y-75103528D01*
X176106044Y-75103528D02*
X176034616Y-75127337D01*
X176034616Y-75127337D02*
X175915568Y-75127337D01*
X176701282Y-75127337D02*
X176534616Y-74889242D01*
X176415568Y-75127337D02*
X176415568Y-74627337D01*
X176415568Y-74627337D02*
X176606044Y-74627337D01*
X176606044Y-74627337D02*
X176653663Y-74651147D01*
X176653663Y-74651147D02*
X176677473Y-74674956D01*
X176677473Y-74674956D02*
X176701282Y-74722575D01*
X176701282Y-74722575D02*
X176701282Y-74794004D01*
X176701282Y-74794004D02*
X176677473Y-74841623D01*
X176677473Y-74841623D02*
X176653663Y-74865432D01*
X176653663Y-74865432D02*
X176606044Y-74889242D01*
X176606044Y-74889242D02*
X176415568Y-74889242D01*
X176915568Y-75127337D02*
X176915568Y-74627337D01*
X177082235Y-74627337D02*
X177248901Y-75127337D01*
X177248901Y-75127337D02*
X177415568Y-74627337D01*
X177582234Y-74865432D02*
X177748901Y-74865432D01*
X177820329Y-75127337D02*
X177582234Y-75127337D01*
X177582234Y-75127337D02*
X177582234Y-74627337D01*
X177582234Y-74627337D02*
X177820329Y-74627337D01*
X178582234Y-74865432D02*
X178653662Y-74889242D01*
X178653662Y-74889242D02*
X178677472Y-74913051D01*
X178677472Y-74913051D02*
X178701281Y-74960670D01*
X178701281Y-74960670D02*
X178701281Y-75032099D01*
X178701281Y-75032099D02*
X178677472Y-75079718D01*
X178677472Y-75079718D02*
X178653662Y-75103528D01*
X178653662Y-75103528D02*
X178606043Y-75127337D01*
X178606043Y-75127337D02*
X178415567Y-75127337D01*
X178415567Y-75127337D02*
X178415567Y-74627337D01*
X178415567Y-74627337D02*
X178582234Y-74627337D01*
X178582234Y-74627337D02*
X178629853Y-74651147D01*
X178629853Y-74651147D02*
X178653662Y-74674956D01*
X178653662Y-74674956D02*
X178677472Y-74722575D01*
X178677472Y-74722575D02*
X178677472Y-74770194D01*
X178677472Y-74770194D02*
X178653662Y-74817813D01*
X178653662Y-74817813D02*
X178629853Y-74841623D01*
X178629853Y-74841623D02*
X178582234Y-74865432D01*
X178582234Y-74865432D02*
X178415567Y-74865432D01*
X179010805Y-74889242D02*
X179010805Y-75127337D01*
X178844139Y-74627337D02*
X179010805Y-74889242D01*
X179010805Y-74889242D02*
X179177472Y-74627337D01*
X179701281Y-74674956D02*
X179725090Y-74651147D01*
X179725090Y-74651147D02*
X179772709Y-74627337D01*
X179772709Y-74627337D02*
X179891757Y-74627337D01*
X179891757Y-74627337D02*
X179939376Y-74651147D01*
X179939376Y-74651147D02*
X179963185Y-74674956D01*
X179963185Y-74674956D02*
X179986995Y-74722575D01*
X179986995Y-74722575D02*
X179986995Y-74770194D01*
X179986995Y-74770194D02*
X179963185Y-74841623D01*
X179963185Y-74841623D02*
X179677471Y-75127337D01*
X179677471Y-75127337D02*
X179986995Y-75127337D01*
X180415566Y-74627337D02*
X180320328Y-74627337D01*
X180320328Y-74627337D02*
X180272709Y-74651147D01*
X180272709Y-74651147D02*
X180248899Y-74674956D01*
X180248899Y-74674956D02*
X180201280Y-74746385D01*
X180201280Y-74746385D02*
X180177471Y-74841623D01*
X180177471Y-74841623D02*
X180177471Y-75032099D01*
X180177471Y-75032099D02*
X180201280Y-75079718D01*
X180201280Y-75079718D02*
X180225090Y-75103528D01*
X180225090Y-75103528D02*
X180272709Y-75127337D01*
X180272709Y-75127337D02*
X180367947Y-75127337D01*
X180367947Y-75127337D02*
X180415566Y-75103528D01*
X180415566Y-75103528D02*
X180439375Y-75079718D01*
X180439375Y-75079718D02*
X180463185Y-75032099D01*
X180463185Y-75032099D02*
X180463185Y-74913051D01*
X180463185Y-74913051D02*
X180439375Y-74865432D01*
X180439375Y-74865432D02*
X180415566Y-74841623D01*
X180415566Y-74841623D02*
X180367947Y-74817813D01*
X180367947Y-74817813D02*
X180272709Y-74817813D01*
X180272709Y-74817813D02*
X180225090Y-74841623D01*
X180225090Y-74841623D02*
X180201280Y-74865432D01*
X180201280Y-74865432D02*
X180177471Y-74913051D01*
X180677470Y-74936861D02*
X181058423Y-74936861D01*
X181296518Y-75127337D02*
X181296518Y-74627337D01*
X181296518Y-74627337D02*
X181486994Y-74627337D01*
X181486994Y-74627337D02*
X181534613Y-74651147D01*
X181534613Y-74651147D02*
X181558423Y-74674956D01*
X181558423Y-74674956D02*
X181582232Y-74722575D01*
X181582232Y-74722575D02*
X181582232Y-74794004D01*
X181582232Y-74794004D02*
X181558423Y-74841623D01*
X181558423Y-74841623D02*
X181534613Y-74865432D01*
X181534613Y-74865432D02*
X181486994Y-74889242D01*
X181486994Y-74889242D02*
X181296518Y-74889242D01*
X181796518Y-75127337D02*
X181796518Y-74627337D01*
X182034613Y-75127337D02*
X182034613Y-74627337D01*
X182034613Y-74627337D02*
X182320327Y-75127337D01*
X182320327Y-75127337D02*
X182320327Y-74627337D01*
X182582233Y-75103528D02*
X182582233Y-75127337D01*
X182582233Y-75127337D02*
X182558423Y-75174956D01*
X182558423Y-75174956D02*
X182534614Y-75198766D01*
X160796521Y-75432309D02*
X160891759Y-75432309D01*
X160891759Y-75432309D02*
X160939378Y-75456119D01*
X160939378Y-75456119D02*
X160986997Y-75503738D01*
X160986997Y-75503738D02*
X161010807Y-75598976D01*
X161010807Y-75598976D02*
X161010807Y-75765642D01*
X161010807Y-75765642D02*
X160986997Y-75860880D01*
X160986997Y-75860880D02*
X160939378Y-75908500D01*
X160939378Y-75908500D02*
X160891759Y-75932309D01*
X160891759Y-75932309D02*
X160796521Y-75932309D01*
X160796521Y-75932309D02*
X160748902Y-75908500D01*
X160748902Y-75908500D02*
X160701283Y-75860880D01*
X160701283Y-75860880D02*
X160677474Y-75765642D01*
X160677474Y-75765642D02*
X160677474Y-75598976D01*
X160677474Y-75598976D02*
X160701283Y-75503738D01*
X160701283Y-75503738D02*
X160748902Y-75456119D01*
X160748902Y-75456119D02*
X160796521Y-75432309D01*
X161153665Y-75432309D02*
X161439379Y-75432309D01*
X161296522Y-75932309D02*
X161296522Y-75432309D01*
X161606045Y-75932309D02*
X161606045Y-75432309D01*
X161606045Y-75670404D02*
X161891759Y-75670404D01*
X161891759Y-75932309D02*
X161891759Y-75432309D01*
X162129855Y-75670404D02*
X162296522Y-75670404D01*
X162367950Y-75932309D02*
X162129855Y-75932309D01*
X162129855Y-75932309D02*
X162129855Y-75432309D01*
X162129855Y-75432309D02*
X162367950Y-75432309D01*
X162867950Y-75932309D02*
X162701284Y-75694214D01*
X162582236Y-75932309D02*
X162582236Y-75432309D01*
X162582236Y-75432309D02*
X162772712Y-75432309D01*
X162772712Y-75432309D02*
X162820331Y-75456119D01*
X162820331Y-75456119D02*
X162844141Y-75479928D01*
X162844141Y-75479928D02*
X162867950Y-75527547D01*
X162867950Y-75527547D02*
X162867950Y-75598976D01*
X162867950Y-75598976D02*
X162844141Y-75646595D01*
X162844141Y-75646595D02*
X162820331Y-75670404D01*
X162820331Y-75670404D02*
X162772712Y-75694214D01*
X162772712Y-75694214D02*
X162582236Y-75694214D01*
X163034617Y-75432309D02*
X163153665Y-75932309D01*
X163153665Y-75932309D02*
X163248903Y-75575166D01*
X163248903Y-75575166D02*
X163344141Y-75932309D01*
X163344141Y-75932309D02*
X163463189Y-75432309D01*
X163653665Y-75932309D02*
X163653665Y-75432309D01*
X163867951Y-75908500D02*
X163939379Y-75932309D01*
X163939379Y-75932309D02*
X164058427Y-75932309D01*
X164058427Y-75932309D02*
X164106046Y-75908500D01*
X164106046Y-75908500D02*
X164129855Y-75884690D01*
X164129855Y-75884690D02*
X164153665Y-75837071D01*
X164153665Y-75837071D02*
X164153665Y-75789452D01*
X164153665Y-75789452D02*
X164129855Y-75741833D01*
X164129855Y-75741833D02*
X164106046Y-75718023D01*
X164106046Y-75718023D02*
X164058427Y-75694214D01*
X164058427Y-75694214D02*
X163963189Y-75670404D01*
X163963189Y-75670404D02*
X163915570Y-75646595D01*
X163915570Y-75646595D02*
X163891760Y-75622785D01*
X163891760Y-75622785D02*
X163867951Y-75575166D01*
X163867951Y-75575166D02*
X163867951Y-75527547D01*
X163867951Y-75527547D02*
X163891760Y-75479928D01*
X163891760Y-75479928D02*
X163915570Y-75456119D01*
X163915570Y-75456119D02*
X163963189Y-75432309D01*
X163963189Y-75432309D02*
X164082236Y-75432309D01*
X164082236Y-75432309D02*
X164153665Y-75456119D01*
X164367950Y-75670404D02*
X164534617Y-75670404D01*
X164606045Y-75932309D02*
X164367950Y-75932309D01*
X164367950Y-75932309D02*
X164367950Y-75432309D01*
X164367950Y-75432309D02*
X164606045Y-75432309D01*
X165486997Y-75884690D02*
X165463188Y-75908500D01*
X165463188Y-75908500D02*
X165391759Y-75932309D01*
X165391759Y-75932309D02*
X165344140Y-75932309D01*
X165344140Y-75932309D02*
X165272712Y-75908500D01*
X165272712Y-75908500D02*
X165225093Y-75860880D01*
X165225093Y-75860880D02*
X165201283Y-75813261D01*
X165201283Y-75813261D02*
X165177474Y-75718023D01*
X165177474Y-75718023D02*
X165177474Y-75646595D01*
X165177474Y-75646595D02*
X165201283Y-75551357D01*
X165201283Y-75551357D02*
X165225093Y-75503738D01*
X165225093Y-75503738D02*
X165272712Y-75456119D01*
X165272712Y-75456119D02*
X165344140Y-75432309D01*
X165344140Y-75432309D02*
X165391759Y-75432309D01*
X165391759Y-75432309D02*
X165463188Y-75456119D01*
X165463188Y-75456119D02*
X165486997Y-75479928D01*
X165796521Y-75432309D02*
X165891759Y-75432309D01*
X165891759Y-75432309D02*
X165939378Y-75456119D01*
X165939378Y-75456119D02*
X165986997Y-75503738D01*
X165986997Y-75503738D02*
X166010807Y-75598976D01*
X166010807Y-75598976D02*
X166010807Y-75765642D01*
X166010807Y-75765642D02*
X165986997Y-75860880D01*
X165986997Y-75860880D02*
X165939378Y-75908500D01*
X165939378Y-75908500D02*
X165891759Y-75932309D01*
X165891759Y-75932309D02*
X165796521Y-75932309D01*
X165796521Y-75932309D02*
X165748902Y-75908500D01*
X165748902Y-75908500D02*
X165701283Y-75860880D01*
X165701283Y-75860880D02*
X165677474Y-75765642D01*
X165677474Y-75765642D02*
X165677474Y-75598976D01*
X165677474Y-75598976D02*
X165701283Y-75503738D01*
X165701283Y-75503738D02*
X165748902Y-75456119D01*
X165748902Y-75456119D02*
X165796521Y-75432309D01*
X166225093Y-75932309D02*
X166225093Y-75432309D01*
X166225093Y-75432309D02*
X166510807Y-75932309D01*
X166510807Y-75932309D02*
X166510807Y-75432309D01*
X166748903Y-75932309D02*
X166748903Y-75432309D01*
X166748903Y-75432309D02*
X167034617Y-75932309D01*
X167034617Y-75932309D02*
X167034617Y-75432309D01*
X167272713Y-75670404D02*
X167439380Y-75670404D01*
X167510808Y-75932309D02*
X167272713Y-75932309D01*
X167272713Y-75932309D02*
X167272713Y-75432309D01*
X167272713Y-75432309D02*
X167510808Y-75432309D01*
X168010808Y-75884690D02*
X167986999Y-75908500D01*
X167986999Y-75908500D02*
X167915570Y-75932309D01*
X167915570Y-75932309D02*
X167867951Y-75932309D01*
X167867951Y-75932309D02*
X167796523Y-75908500D01*
X167796523Y-75908500D02*
X167748904Y-75860880D01*
X167748904Y-75860880D02*
X167725094Y-75813261D01*
X167725094Y-75813261D02*
X167701285Y-75718023D01*
X167701285Y-75718023D02*
X167701285Y-75646595D01*
X167701285Y-75646595D02*
X167725094Y-75551357D01*
X167725094Y-75551357D02*
X167748904Y-75503738D01*
X167748904Y-75503738D02*
X167796523Y-75456119D01*
X167796523Y-75456119D02*
X167867951Y-75432309D01*
X167867951Y-75432309D02*
X167915570Y-75432309D01*
X167915570Y-75432309D02*
X167986999Y-75456119D01*
X167986999Y-75456119D02*
X168010808Y-75479928D01*
X168153666Y-75432309D02*
X168439380Y-75432309D01*
X168296523Y-75932309D02*
X168296523Y-75432309D01*
X168915570Y-75432309D02*
X169201284Y-75432309D01*
X169058427Y-75932309D02*
X169058427Y-75432309D01*
X169463188Y-75432309D02*
X169558426Y-75432309D01*
X169558426Y-75432309D02*
X169606045Y-75456119D01*
X169606045Y-75456119D02*
X169653664Y-75503738D01*
X169653664Y-75503738D02*
X169677474Y-75598976D01*
X169677474Y-75598976D02*
X169677474Y-75765642D01*
X169677474Y-75765642D02*
X169653664Y-75860880D01*
X169653664Y-75860880D02*
X169606045Y-75908500D01*
X169606045Y-75908500D02*
X169558426Y-75932309D01*
X169558426Y-75932309D02*
X169463188Y-75932309D01*
X169463188Y-75932309D02*
X169415569Y-75908500D01*
X169415569Y-75908500D02*
X169367950Y-75860880D01*
X169367950Y-75860880D02*
X169344141Y-75765642D01*
X169344141Y-75765642D02*
X169344141Y-75598976D01*
X169344141Y-75598976D02*
X169367950Y-75503738D01*
X169367950Y-75503738D02*
X169415569Y-75456119D01*
X169415569Y-75456119D02*
X169463188Y-75432309D01*
X170225093Y-75432309D02*
X170534617Y-75432309D01*
X170534617Y-75432309D02*
X170367950Y-75622785D01*
X170367950Y-75622785D02*
X170439379Y-75622785D01*
X170439379Y-75622785D02*
X170486998Y-75646595D01*
X170486998Y-75646595D02*
X170510807Y-75670404D01*
X170510807Y-75670404D02*
X170534617Y-75718023D01*
X170534617Y-75718023D02*
X170534617Y-75837071D01*
X170534617Y-75837071D02*
X170510807Y-75884690D01*
X170510807Y-75884690D02*
X170486998Y-75908500D01*
X170486998Y-75908500D02*
X170439379Y-75932309D01*
X170439379Y-75932309D02*
X170296522Y-75932309D01*
X170296522Y-75932309D02*
X170248903Y-75908500D01*
X170248903Y-75908500D02*
X170225093Y-75884690D01*
X170963188Y-75598976D02*
X170963188Y-75932309D01*
X170844140Y-75408500D02*
X170725093Y-75765642D01*
X170725093Y-75765642D02*
X171034616Y-75765642D01*
X171606044Y-75932309D02*
X171606044Y-75432309D01*
X171606044Y-75432309D02*
X171796520Y-75432309D01*
X171796520Y-75432309D02*
X171844139Y-75456119D01*
X171844139Y-75456119D02*
X171867949Y-75479928D01*
X171867949Y-75479928D02*
X171891758Y-75527547D01*
X171891758Y-75527547D02*
X171891758Y-75598976D01*
X171891758Y-75598976D02*
X171867949Y-75646595D01*
X171867949Y-75646595D02*
X171844139Y-75670404D01*
X171844139Y-75670404D02*
X171796520Y-75694214D01*
X171796520Y-75694214D02*
X171606044Y-75694214D01*
X172106044Y-75932309D02*
X172106044Y-75432309D01*
X172344139Y-75932309D02*
X172344139Y-75432309D01*
X172344139Y-75432309D02*
X172629853Y-75932309D01*
X172629853Y-75932309D02*
X172629853Y-75432309D01*
X173415568Y-75670404D02*
X173248901Y-75670404D01*
X173248901Y-75932309D02*
X173248901Y-75432309D01*
X173248901Y-75432309D02*
X173486996Y-75432309D01*
X173915567Y-75932309D02*
X173677472Y-75932309D01*
X173677472Y-75932309D02*
X173677472Y-75432309D01*
X174177472Y-75432309D02*
X174272710Y-75432309D01*
X174272710Y-75432309D02*
X174320329Y-75456119D01*
X174320329Y-75456119D02*
X174367948Y-75503738D01*
X174367948Y-75503738D02*
X174391758Y-75598976D01*
X174391758Y-75598976D02*
X174391758Y-75765642D01*
X174391758Y-75765642D02*
X174367948Y-75860880D01*
X174367948Y-75860880D02*
X174320329Y-75908500D01*
X174320329Y-75908500D02*
X174272710Y-75932309D01*
X174272710Y-75932309D02*
X174177472Y-75932309D01*
X174177472Y-75932309D02*
X174129853Y-75908500D01*
X174129853Y-75908500D02*
X174082234Y-75860880D01*
X174082234Y-75860880D02*
X174058425Y-75765642D01*
X174058425Y-75765642D02*
X174058425Y-75598976D01*
X174058425Y-75598976D02*
X174082234Y-75503738D01*
X174082234Y-75503738D02*
X174129853Y-75456119D01*
X174129853Y-75456119D02*
X174177472Y-75432309D01*
X174606044Y-75932309D02*
X174606044Y-75432309D01*
X174606044Y-75432309D02*
X174796520Y-75432309D01*
X174796520Y-75432309D02*
X174844139Y-75456119D01*
X174844139Y-75456119D02*
X174867949Y-75479928D01*
X174867949Y-75479928D02*
X174891758Y-75527547D01*
X174891758Y-75527547D02*
X174891758Y-75598976D01*
X174891758Y-75598976D02*
X174867949Y-75646595D01*
X174867949Y-75646595D02*
X174844139Y-75670404D01*
X174844139Y-75670404D02*
X174796520Y-75694214D01*
X174796520Y-75694214D02*
X174606044Y-75694214D01*
X175106044Y-75932309D02*
X175106044Y-75432309D01*
X175106044Y-75432309D02*
X175296520Y-75432309D01*
X175296520Y-75432309D02*
X175344139Y-75456119D01*
X175344139Y-75456119D02*
X175367949Y-75479928D01*
X175367949Y-75479928D02*
X175391758Y-75527547D01*
X175391758Y-75527547D02*
X175391758Y-75598976D01*
X175391758Y-75598976D02*
X175367949Y-75646595D01*
X175367949Y-75646595D02*
X175344139Y-75670404D01*
X175344139Y-75670404D02*
X175296520Y-75694214D01*
X175296520Y-75694214D02*
X175106044Y-75694214D01*
X175701282Y-75694214D02*
X175701282Y-75932309D01*
X175534616Y-75432309D02*
X175701282Y-75694214D01*
X175701282Y-75694214D02*
X175867949Y-75432309D01*
X176415567Y-75932309D02*
X176415567Y-75432309D01*
X176415567Y-75432309D02*
X176534615Y-75432309D01*
X176534615Y-75432309D02*
X176606043Y-75456119D01*
X176606043Y-75456119D02*
X176653662Y-75503738D01*
X176653662Y-75503738D02*
X176677472Y-75551357D01*
X176677472Y-75551357D02*
X176701281Y-75646595D01*
X176701281Y-75646595D02*
X176701281Y-75718023D01*
X176701281Y-75718023D02*
X176677472Y-75813261D01*
X176677472Y-75813261D02*
X176653662Y-75860880D01*
X176653662Y-75860880D02*
X176606043Y-75908500D01*
X176606043Y-75908500D02*
X176534615Y-75932309D01*
X176534615Y-75932309D02*
X176415567Y-75932309D01*
X177201281Y-75932309D02*
X177034615Y-75694214D01*
X176915567Y-75932309D02*
X176915567Y-75432309D01*
X176915567Y-75432309D02*
X177106043Y-75432309D01*
X177106043Y-75432309D02*
X177153662Y-75456119D01*
X177153662Y-75456119D02*
X177177472Y-75479928D01*
X177177472Y-75479928D02*
X177201281Y-75527547D01*
X177201281Y-75527547D02*
X177201281Y-75598976D01*
X177201281Y-75598976D02*
X177177472Y-75646595D01*
X177177472Y-75646595D02*
X177153662Y-75670404D01*
X177153662Y-75670404D02*
X177106043Y-75694214D01*
X177106043Y-75694214D02*
X176915567Y-75694214D01*
X177415567Y-75932309D02*
X177415567Y-75432309D01*
X177582234Y-75432309D02*
X177748900Y-75932309D01*
X177748900Y-75932309D02*
X177915567Y-75432309D01*
X178082233Y-75670404D02*
X178248900Y-75670404D01*
X178320328Y-75932309D02*
X178082233Y-75932309D01*
X178082233Y-75932309D02*
X178082233Y-75432309D01*
X178082233Y-75432309D02*
X178320328Y-75432309D01*
D12*
X149332166Y-102772559D02*
X149332166Y-103486844D01*
X149332166Y-103486844D02*
X149284547Y-103629701D01*
X149284547Y-103629701D02*
X149189309Y-103724940D01*
X149189309Y-103724940D02*
X149046452Y-103772559D01*
X149046452Y-103772559D02*
X148951214Y-103772559D01*
X150332166Y-103772559D02*
X149760738Y-103772559D01*
X150046452Y-103772559D02*
X150046452Y-102772559D01*
X150046452Y-102772559D02*
X149951214Y-102915416D01*
X149951214Y-102915416D02*
X149855976Y-103010654D01*
X149855976Y-103010654D02*
X149760738Y-103058273D01*
X175332166Y-86172559D02*
X175332166Y-86886844D01*
X175332166Y-86886844D02*
X175284547Y-87029701D01*
X175284547Y-87029701D02*
X175189309Y-87124940D01*
X175189309Y-87124940D02*
X175046452Y-87172559D01*
X175046452Y-87172559D02*
X174951214Y-87172559D01*
X175713119Y-86172559D02*
X176332166Y-86172559D01*
X176332166Y-86172559D02*
X175998833Y-86553511D01*
X175998833Y-86553511D02*
X176141690Y-86553511D01*
X176141690Y-86553511D02*
X176236928Y-86601130D01*
X176236928Y-86601130D02*
X176284547Y-86648749D01*
X176284547Y-86648749D02*
X176332166Y-86743987D01*
X176332166Y-86743987D02*
X176332166Y-86982082D01*
X176332166Y-86982082D02*
X176284547Y-87077320D01*
X176284547Y-87077320D02*
X176236928Y-87124940D01*
X176236928Y-87124940D02*
X176141690Y-87172559D01*
X176141690Y-87172559D02*
X175855976Y-87172559D01*
X175855976Y-87172559D02*
X175760738Y-87124940D01*
X175760738Y-87124940D02*
X175713119Y-87077320D01*
D13*
%TO.C,J1*%
X133095500Y-110917740D02*
X134120500Y-110917740D01*
X133095500Y-112027740D02*
X133095500Y-110917740D01*
X134120500Y-110917740D02*
X134120500Y-110377740D01*
X136275500Y-106407740D02*
X137100500Y-106407740D01*
X137100500Y-106407740D02*
X137100500Y-104607740D01*
X162230500Y-106407740D02*
X163055500Y-106407740D01*
X165210500Y-110377740D02*
X165210500Y-110917740D01*
X165210500Y-110917740D02*
X166235500Y-110917740D01*
X166235500Y-110917740D02*
X166235500Y-112027740D01*
X166235500Y-112027740D02*
X133095500Y-112027740D01*
%TO.C,J3*%
X171380500Y-83077740D02*
X171380500Y-84727740D01*
X171380500Y-84727740D02*
X173230500Y-84727740D01*
X178100500Y-84727740D02*
X178100500Y-85517740D01*
X178630500Y-80107740D02*
X172700500Y-80107740D01*
X179950500Y-83077740D02*
X179950500Y-84727740D01*
X179950500Y-84727740D02*
X178100500Y-84727740D01*
%TO.C,J2*%
X121245500Y-79387740D02*
X169725500Y-79387740D01*
X121245500Y-85787740D02*
X121245500Y-79387740D01*
X124665500Y-88487740D02*
X125665500Y-88487740D01*
X125165500Y-87487740D02*
X124665500Y-88487740D01*
X125665500Y-88487740D02*
X125165500Y-87487740D01*
X143435500Y-85787740D02*
X121245500Y-85787740D01*
X143435500Y-87097740D02*
X143435500Y-85787740D01*
D14*
X143435500Y-87097740D02*
X147535500Y-87097740D01*
D13*
X147535500Y-85787740D02*
X147535500Y-87097740D01*
X169725500Y-79387740D02*
X169725500Y-85787740D01*
X169725500Y-85787740D02*
X147535500Y-85787740D01*
%TD*%
M02*
