%TF.GenerationSoftware,KiCad,Pcbnew,9.0.7*%
%TF.CreationDate,2026-02-17T16:16:18+01:00*%
%TF.ProjectId,FDD-Final,4644442d-4669-46e6-916c-2e6b69636164,rev?*%
%TF.SameCoordinates,Original*%
%TF.FileFunction,Copper,L2,Bot*%
%TF.FilePolarity,Positive*%
%FSLAX46Y46*%
G04 Gerber Fmt 4.6, Leading zero omitted, Abs format (unit mm)*
G04 Created by KiCad (PCBNEW 9.0.7) date 2026-02-17 16:16:18*
%MOMM*%
%LPD*%
G01*
G04 APERTURE LIST*
G04 Aperture macros list*
%AMRoundRect*
0 Rectangle with rounded corners*
0 $1 Rounding radius*
0 $2 $3 $4 $5 $6 $7 $8 $9 X,Y pos of 4 corners*
0 Add a 4 corners polygon primitive as box body*
4,1,4,$2,$3,$4,$5,$6,$7,$8,$9,$2,$3,0*
0 Add four circle primitives for the rounded corners*
1,1,$1+$1,$2,$3*
1,1,$1+$1,$4,$5*
1,1,$1+$1,$6,$7*
1,1,$1+$1,$8,$9*
0 Add four rect primitives between the rounded corners*
20,1,$1+$1,$2,$3,$4,$5,0*
20,1,$1+$1,$4,$5,$6,$7,0*
20,1,$1+$1,$6,$7,$8,$9,0*
20,1,$1+$1,$8,$9,$2,$3,0*%
G04 Aperture macros list end*
%TA.AperFunction,ComponentPad*%
%ADD10RoundRect,0.250000X0.600000X-0.600000X0.600000X0.600000X-0.600000X0.600000X-0.600000X-0.600000X0*%
%TD*%
%TA.AperFunction,ComponentPad*%
%ADD11C,1.700000*%
%TD*%
%TA.AperFunction,ViaPad*%
%ADD12C,0.600000*%
%TD*%
%TA.AperFunction,Conductor*%
%ADD13C,0.200000*%
%TD*%
G04 APERTURE END LIST*
D10*
%TO.P,J2,1,Pin_1*%
%TO.N,unconnected-(J2-Pin_1-Pad1)*%
X125165500Y-83857740D03*
D11*
%TO.P,J2,2,Pin_2*%
%TO.N,DENSITY*%
X125165500Y-81317740D03*
%TO.P,J2,3,Pin_3*%
%TO.N,unconnected-(J2-Pin_3-Pad3)*%
X127705500Y-83857740D03*
%TO.P,J2,4,Pin_4*%
%TO.N,unconnected-(J2-Pin_4-Pad4)*%
X127705500Y-81317740D03*
%TO.P,J2,5,Pin_5*%
%TO.N,unconnected-(J2-Pin_5-Pad5)*%
X130245500Y-83857740D03*
%TO.P,J2,6,Pin_6*%
%TO.N,unconnected-(J2-Pin_6-Pad6)*%
X130245500Y-81317740D03*
%TO.P,J2,7,Pin_7*%
%TO.N,unconnected-(J2-Pin_7-Pad7)*%
X132785500Y-83857740D03*
%TO.P,J2,8,Pin_8*%
%TO.N,INDEX*%
X132785500Y-81317740D03*
%TO.P,J2,9,Pin_9*%
%TO.N,unconnected-(J2-Pin_9-Pad9)*%
X135325500Y-83857740D03*
%TO.P,J2,10,Pin_10*%
%TO.N,unconnected-(J2-Pin_10-Pad10)*%
X135325500Y-81317740D03*
%TO.P,J2,11,Pin_11*%
%TO.N,unconnected-(J2-Pin_11-Pad11)*%
X137865500Y-83857740D03*
%TO.P,J2,12,Pin_12*%
%TO.N,DRIVE SELECT*%
X137865500Y-81317740D03*
%TO.P,J2,13,Pin_13*%
%TO.N,unconnected-(J2-Pin_13-Pad13)*%
X140405500Y-83857740D03*
%TO.P,J2,14,Pin_14*%
%TO.N,unconnected-(J2-Pin_14-Pad14)*%
X140405500Y-81317740D03*
%TO.P,J2,15,Pin_15*%
%TO.N,unconnected-(J2-Pin_15-Pad15)*%
X142945500Y-83857740D03*
%TO.P,J2,16,Pin_16*%
%TO.N,MOTOR ENABLE*%
X142945500Y-81317740D03*
%TO.P,J2,17,Pin_17*%
%TO.N,unconnected-(J2-Pin_17-Pad17)*%
X145485500Y-83857740D03*
%TO.P,J2,18,Pin_18*%
%TO.N,DIRECTION*%
X145485500Y-81317740D03*
%TO.P,J2,19,Pin_19*%
%TO.N,GND*%
X148025500Y-83857740D03*
%TO.P,J2,20,Pin_20*%
%TO.N,STEP*%
X148025500Y-81317740D03*
%TO.P,J2,21,Pin_21*%
%TO.N,GND*%
X150565500Y-83857740D03*
%TO.P,J2,22,Pin_22*%
%TO.N,WRITE DATA*%
X150565500Y-81317740D03*
%TO.P,J2,23,Pin_23*%
%TO.N,GND*%
X153105500Y-83857740D03*
%TO.P,J2,24,Pin_24*%
%TO.N,WRITE GATE*%
X153105500Y-81317740D03*
%TO.P,J2,25,Pin_25*%
%TO.N,Net-(J1-Pin_19)*%
X155645500Y-83857740D03*
%TO.P,J2,26,Pin_26*%
%TO.N,TRACK 0*%
X155645500Y-81317740D03*
%TO.P,J2,27,Pin_27*%
%TO.N,unconnected-(J2-Pin_27-Pad27)*%
X158185500Y-83857740D03*
%TO.P,J2,28,Pin_28*%
%TO.N,WRITE PROTECT*%
X158185500Y-81317740D03*
%TO.P,J2,29,Pin_29*%
%TO.N,GND*%
X160725500Y-83857740D03*
%TO.P,J2,30,Pin_30*%
%TO.N,READ DATA*%
X160725500Y-81317740D03*
%TO.P,J2,31,Pin_31*%
%TO.N,GND*%
X163265500Y-83857740D03*
%TO.P,J2,32,Pin_32*%
%TO.N,HEAD SELECT*%
X163265500Y-81317740D03*
%TO.P,J2,33,Pin_33*%
%TO.N,unconnected-(J2-Pin_33-Pad33)*%
X165805500Y-83857740D03*
%TO.P,J2,34,Pin_34*%
%TO.N,DISK CHANGE*%
X165805500Y-81317740D03*
%TD*%
D12*
%TO.N,GND*%
X149000000Y-86500000D03*
X157500000Y-98000000D03*
%TO.N,DENSITY*%
X147500000Y-101500000D03*
X125000000Y-91000000D03*
%TO.N,DISK CHANGE*%
X165000000Y-100000000D03*
X145000000Y-95000000D03*
%TD*%
D13*
%TO.N,GND*%
X157500000Y-98000000D02*
X157500000Y-95000000D01*
X157500000Y-95000000D02*
X149000000Y-86500000D01*
%TO.N,DENSITY*%
X147500000Y-101500000D02*
X137000000Y-91000000D01*
X137000000Y-91000000D02*
X125000000Y-91000000D01*
%TO.N,DISK CHANGE*%
X150000000Y-100000000D02*
X165000000Y-100000000D01*
X145000000Y-95000000D02*
X150000000Y-100000000D01*
%TD*%
M02*
